# AST/ASF file generated using VICON BodyLanguage
# -----------------------------------------------
:version 1.10
:name VICON
:units
  mass 1.0
  length 0.45
  angle deg
:documentation
   .ast/.asf automatically generated from VICON data using
   VICON BodyBuilder and BodyLanguage model FoxedUp or BRILLIANT.MOD
:root
   order TX TY TZ RX RY RZ
   axis XYZ
   position 0 0 0  
   orientation 0 0 0 
:bonedata
  begin
     id 1 
     name lhipjoint
     direction 0.682418 -0.694059 0.22932 
     length 2.25561 
     axis 0 0 0  XYZ
  end
  begin
     id 2 
     name lfemur
     direction 0.34202 -0.939693 0  
     length 6.96448  
     axis 0 0 20  XYZ
    dof rx ry rz
    limits (-160.0 20.0)
           (-70.0 70.0)
           (-60.0 70.0)
  end
  begin
     id 3 
     name ltibia
     direction 0.34202 -0.939693 0   
     length 6.88553   
     axis 0 0 20   XYZ
    dof rx
    limits (-10.0 170.0)
  end
  begin
     id 4 
     name lfoot
     direction 0.0723587 -0.198804 0.977364   
     length 1.88518   
     axis -90 7.62852e-016 20   XYZ
    dof rx rz
    limits (-45.0 90.0)
           (-70.0 20.0)
  end
  begin
     id 5 
     name ltoes
     direction 1.53558e-011 -4.21962e-011 1   
     length 0.952124   
     axis -90 7.62852e-016 20   XYZ
    dof rx
    limits (-90.0 20.0)
  end
  begin
     id 6 
     name rhipjoint
     direction -0.657603 -0.71533 0.236348   
     length 2.18854  
     axis 0 0 0  XYZ 
  end
  begin
     id 7 
     name rfemur
     direction -0.34202 -0.939693 0   
     length 6.86686   
     axis 0 0 -20   XYZ
    dof rx ry rz
    limits (-160.0 20.0)
           (-70.0 70.0)
           (-70.0 60.0)
  end
  begin
     id 8 
     name rtibia
     direction -0.34202 -0.939693 0   
     length 6.59503   
     axis 0 0 -20   XYZ
    dof rx
    limits (-10.0 170.0)
 end
 begin
     id 9 
     name rfoot
     direction -0.101977 -0.280179 0.954516   
     length 1.93723  
     axis -90 -7.62852e-016 -20   XYZ
    dof rx rz
    limits (-45.0 90.0)
           (-20.0 70.0)
  end
  begin
     id 10 
     name rtoes
     direction -1.53564e-011 -4.21897e-011 1   
     length 0.970315   
     axis -90 -7.62852e-016 -20   XYZ
    dof rx
    limits (-90.0 20.0)
  end
  begin
     id 11 
     name lowerback
     direction -0.0339559 0.999421 -0.00235966   
     length 1.88543   
     axis 0 0 0   XYZ
    dof rx ry rz
    limits (-20.0 45.0)
           (-30.0 30.0)
           (-30.0 30.0)
  end
  begin
     id 12 
     name upperback
     direction 0.00401003 0.999739 0.0224689   
     length 1.8856   
     axis 0 0 0   XYZ
    dof rx ry rz
    limits (-20.0 45.0)
           (-30.0 30.0)
           (-30.0 30.0)
  end
  begin
     id 13 
     name thorax
     direction 0.0198619 0.999546 0.0226536   
     length 1.88352   
     axis 0 0 0   XYZ
    dof rx ry rz
    limits (-20.0 45.0)
           (-30.0 30.0)
           (-30.0 30.0)
  end
  begin
     id 14 
     name lowerneck
     direction -0.0461848 0.998632 0.0245198   
     length 1.34895   
     axis 0 0 0   XYZ
    dof rx ry rz
    limits (-20.0 45.0)
           (-30.0 30.0)
           (-30.0 30.0)
  end
  begin
     id 15 
     name upperneck
     direction -0.0180627 0.994724 -0.100984   
     length 1.35214   
     axis 0 0 0   XYZ
    dof rx ry rz
    limits (-20.0 45.0)
           (-30.0 30.0)
           (-30.0 30.0)
  end
  begin
     id 16
     name head
     direction -0.00374772 0.999293 -0.037403  
     length 1.3568  
     axis 0 0 0   XYZ
    dof rx ry rz
    limits (-20.0 45.0)
           (-30.0 30.0)
           (-30.0 30.0)
  end
  begin
     id 17 
     name lclavicle
     direction 0.971773 0.191119 0.138311  
     length 2.84954  
     axis 0 0 0   XYZ
    dof ry rz
    limits (-20.0 10.0)
           (0.0 20.0)
  end
  begin
     id 18 
     name lhumerus
     direction 1 -4.4897e-011 -2.43761e-027   
     length 4.40919   
     axis 180 -30 -90   XYZ
    dof rx ry rz
    limits (-60.0 90.0)
           (-90.0 90.0)
           (-90.0 90.0)
  end
  begin
     id 19
     name lradius
     direction 1 -4.4896e-011 -9.1621e-027   
     length 3.03857   
     axis 180 -30 -90   XYZ
    dof rx
    limits (-10.0 170.0)
  end
  begin
     id 20
     name lwrist
     direction 1 -4.4896e-011 -1.41363e-026   
     length 1.51928   
     axis 1.07133e-014 90 90   XYZ
    dof ry
    limits (-180.0 0.0)
 end
  begin
     id 21 
     name lhand
     direction 1 -4.48978e-011 -2.82725e-026   
     length 0.523208   
     axis 1.80403e-014 90 90   XYZ
    dof rx rz
    limits (-90.0 90.0)
           (-45.0 45.0)
  end
  begin
     id 22 
     name lfingers
     direction 1 -4.48977e-011 -5.6545e-026   
     length 0.421824   
     axis 3.60806e-014 90 90   XYZ
    dof rx
    limits (0.0 90.0)
  end
  begin
     id 23
     name lthumb
     direction 0.707107 -6.34962e-011 0.707107   
     length 0.605657   
     axis -90 45 2.85299e-015   XYZ
    dof rx rz
    limits (-45.0 45.0)
           (-45.0 45.0)
  end
  begin
     id 24 
     name rclavicle
     direction -0.957247 0.24311 0.156766   
     length 3.12406  
     axis 0 0 0   XYZ 
    dof ry rz
    limits (-10.0 20.0)
           (-20.0 0.0)
  end
  begin
     id 25 
     name rhumerus
     direction -1 -4.48964e-011 -1.70632e-027  
     length 4.61969   
     axis 180 30 90   XYZ
    dof rx ry rz
    limits (-90.0 60.0)
           (-90.0 90.0)
           (-90.0 90.0)
  end
  begin
     id 26 
     name rradius
     direction -1 -4.48966e-011 -6.60395e-027   
     length 3.09382   
     axis 180 30 90   XYZ
    dof rx
    limits (-10.0 170.0)
  end
  begin
     id 27 
     name rwrist
     direction -1 -4.48963e-011 -1.41363e-026   
     length 1.54691   
     axis 1.07133e-014 -90 -90   XYZ
    dof ry
    limits (-180.0 0.0)
  end
  begin
     id 28
     name rhand
     direction -1 -4.49013e-011 -2.82725e-026   
     length 0.500896   
     axis 1.80403e-014 -90 -90   XYZ
    dof rx rz
    limits (-90.0 90.0)
           (-45.0 45.0)
  end
  begin
     id 29
     name rfingers
     direction -1 -4.48902e-011 -5.6545e-026   
     length 0.403835   
     axis 3.60806e-014 -90 -90   XYZ
    dof rx
    limits (0.0 90.0)
  end
  begin
     id 30
     name rthumb
     direction -0.707107 -6.34953e-011 0.707107   
     length 0.579829   
     axis -90 -45 -2.85299e-015   XYZ
    dof rx rz
    limits (-45.0 45.0)
           (-45.0 45.0)
  end
:hierarchy
  begin
    root lhipjoint rhipjoint lowerback
    lhipjoint lfemur
    lfemur ltibia
    ltibia lfoot
    lfoot ltoes
    rhipjoint rfemur
    rfemur rtibia
    rtibia rfoot
    rfoot rtoes
    lowerback upperback
    upperback thorax
    thorax lowerneck lclavicle rclavicle
    lowerneck upperneck
    upperneck head
    lclavicle lhumerus
    lhumerus lradius
    lradius lwrist
    lwrist lhand lthumb
    lhand lfingers
    rclavicle rhumerus
    rhumerus rradius
    rradius rwrist
    rwrist rhand rthumb
    rhand rfingers
  end

#!OML:ASF E:\madness\Project 1\Capture day 1\Session 1\Female1.ASF
:FULLY-SPECIFIED
:DEGREES
364
root 29.7164 15.8678 -2.07878 -519.731 -72.7798 530.027
lowerback -0.402537 -1.34303 -6.31347
upperback -2.42864 -1.85352 1.40685
thorax -2.04151 -0.804282 5.0233
lowerneck 4.62026 -2.80762 -1.98824
upperneck -1.03146 -3.93709 -2.16249
head -1.08975 -1.93539 -0.245127
rclavicle 1.25731e-014 -1.94809e-014
rhumerus -43.6983 16.7347 -80.6774
rradius 61.6766
rwrist 6.49832
rhand -5.45 -49.2119
rfingers 7.12502
rthumb 20.361 -78.1645
lclavicle 1.25731e-014 -1.94809e-014
lhumerus -56.2725 -12.1511 71.2846
lradius 74.3264
lwrist -17.0276
lhand -24.0143 -22.5483
lfingers 7.12502
lthumb 2.46352 7.41719
rfemur -34.1519 12.0799 8.7912
rtibia 31.6568
rfoot -14.8663 -2.33656
rtoes -2.04477
lfemur -9.59982 -8.98005 -22.623
ltibia 24.2445
lfoot -18.1735 18.6142
ltoes 2.56141
365
root 29.7576 15.8782 -2.04304 -519.348 -71.6522 529.307
lowerback -0.676187 -1.10566 -6.60774
upperback -2.17979 -1.51269 1.21475
thorax -1.67352 -0.648488 4.97708
lowerneck 4.53188 -2.63873 -1.7904
upperneck -1.05176 -3.71417 -2.61273
head -1.09476 -1.81982 -0.422074
rclavicle -2.4699e-014 1.63003e-014
rhumerus -43.4311 16.3503 -80.0233
rradius 60.6847
rwrist 6.84498
rhand -5.70153 -49.1793
rfingers 7.12502
rthumb 20.1193 -78.1575
lclavicle -2.4699e-014 1.63003e-014
lhumerus -55.33 -12.6662 71.154
lradius 73.8906
lwrist -17.6555
lhand -23.9334 -23.02
lfingers 7.12502
lthumb 2.54165 6.94464
rfemur -34.0186 11.8852 8.44836
rtibia 31.6336
rfoot -15.3792 -2.10966
rtoes -2.59092
lfemur -9.34549 -8.55181 -23.3856
ltibia 24.3297
lfoot -18.8859 18.3007
ltoes 6.25789
366
root 29.8267 15.8828 -2.01162 -520.273 -70.683 530.296
lowerback -0.760726 -0.914177 -6.47136
upperback -2.2483 -1.25435 1.22819
thorax -1.73379 -0.518134 4.91291
lowerneck 4.77633 -2.42969 -1.66797
upperneck -1.00853 -3.45351 -3.09106
head -1.13491 -1.68426 -0.59288
rclavicle -3.57812e-015 -1.11319e-014
rhumerus -43.234 16.1727 -79.5069
rradius 59.5332
rwrist 7.1536
rhand -5.69329 -48.9057
rfingers 7.12502
rthumb 20.1272 -77.8831
lclavicle -3.57812e-015 -1.11319e-014
lhumerus -54.7955 -13.0212 70.9617
lradius 73.488
lwrist -18.7234
lhand -23.9745 -23.1128
lfingers 7.12502
lthumb 2.50196 6.85225
rfemur -34.3698 12.2071 8.5429
rtibia 31.5374
rfoot -15.4718 -2.75738
rtoes -3.08094
lfemur -9.71144 -7.89758 -23.3455
ltibia 24.5157
lfoot -19.3871 17.9383
ltoes 8.26274
367
root 29.8732 15.8928 -1.9815 -520.918 -69.9107 530.869
lowerback -1.01716 -0.789184 -6.3056
upperback -2.15816 -1.06687 1.21624
thorax -1.52314 -0.436521 4.80102
lowerneck 4.60957 -2.18989 -1.41667
upperneck -0.803427 -3.12744 -3.62206
head -1.05473 -1.52236 -0.809774
rclavicle 1.16786e-014 -3.18055e-015
rhumerus -42.963 16.1145 -78.988
rradius 58.4705
rwrist 7.38037
rhand -5.63641 -49.1098
rfingers 7.12502
rthumb 20.1818 -78.0815
lclavicle 1.16786e-014 -3.18055e-015
lhumerus -54.2673 -13.3731 70.8797
lradius 73.2648
lwrist -19.0903
lhand -24.2843 -22.7993
lfingers 7.12502
lthumb 2.20275 7.16908
rfemur -34.3852 12.4108 8.60361
rtibia 31.4961
rfoot -15.8054 -3.60593
rtoes -1.88225
lfemur -9.76064 -7.35149 -23.4119
ltibia 24.5101
lfoot -19.5724 17.7429
ltoes 8.92809
368
root 29.9286 15.8966 -1.95638 -521.961 -69.1309 531.624
lowerback -0.959895 -0.569594 -6.1589
upperback -2.08287 -0.773774 1.2186
thorax -1.51635 -0.293419 4.7208
lowerneck 4.65342 -1.95627 -1.15889
upperneck -0.57116 -2.80977 -4.0469
head -0.998328 -1.36496 -0.99306
rclavicle -2.76808e-014 2.78299e-015
rhumerus -42.8704 15.8476 -78.4655
rradius 57.559
rwrist 7.5912
rhand -5.73027 -49.1382
rfingers 7.12502
rthumb 20.0916 -78.1193
lclavicle -2.76808e-014 2.78299e-015
lhumerus -53.9006 -13.9201 70.8964
lradius 73.3425
lwrist -18.6905
lhand -23.8519 -22.2825
lfingers 7.12502
lthumb 2.62041 7.68118
rfemur -34.19 12.7535 8.81647
rtibia 31.4756
rfoot -16.063 -4.67106
rtoes -0.122665
lfemur -9.61998 -6.53955 -23.4093
ltibia 24.6317
lfoot -19.1233 17.9622
ltoes 6.93034
369
root 29.985 15.9037 -1.92682 -522.505 -68.6062 532.098
lowerback -1.09667 -0.500578 -5.92691
upperback -2.09085 -0.674106 1.21156
thorax -1.46188 -0.249049 4.58076
lowerneck 4.79579 -1.71421 -0.922969
upperneck -0.268307 -2.4859 -4.56828
head -0.93605 -1.20513 -1.20354
rclavicle 4.11981e-014 -1.82882e-014
rhumerus -42.6547 15.8413 -78.0339
rradius 56.527
rwrist 7.89943
rhand -5.71338 -49.0131
rfingers 7.12502
rthumb 20.1079 -77.9925
lclavicle 4.11981e-014 -1.82882e-014
lhumerus -53.6524 -14.275 70.7689
lradius 73.7245
lwrist -17.6787
lhand -23.9067 -22.4629
lfingers 7.12502
lthumb 2.56745 7.50136
rfemur -34.1985 12.8866 8.93369
rtibia 31.5653
rfoot -15.9726 -5.98389
rtoes 0.0901423
lfemur -9.75168 -5.97671 -23.3852
ltibia 24.6885
lfoot -18.3124 18.1483
ltoes 4.40213
370
root 30.0371 15.9164 -1.896 -522.914 -68.2022 532.527
lowerback -1.36387 -0.493739 -5.64808
upperback -1.94242 -0.644043 1.23723
thorax -1.16324 -0.249959 4.44604
lowerneck 4.42349 -1.45405 -0.803635
upperneck 0.0879374 -2.12612 -5.07685
head -0.764141 -1.03577 -1.39473
rclavicle -4.82053e-014 -5.56597e-015
rhumerus -41.9383 16.0997 -77.523
rradius 55.282
rwrist 8.03051
rhand -5.43389 -48.9989
rfingers 7.12502
rthumb 20.3765 -77.9499
lclavicle -4.82053e-014 -5.56597e-015
lhumerus -53.1519 -14.339 70.5097
lradius 74.1444
lwrist -16.8932
lhand -22.8059 -22.3309
lfingers 7.12502
lthumb 3.63056 7.61788
rfemur -34.2429 12.9774 9.00066
rtibia 31.7703
rfoot -15.7637 -7.28918
rtoes -0.576111
lfemur -10.0231 -5.79619 -23.3233
ltibia 24.7931
lfoot -17.9413 18.1574
ltoes 2.59973
371
root 30.0854 15.9252 -1.86829 -523.469 -67.7593 533.017
lowerback -1.46789 -0.438522 -5.39531
upperback -1.89777 -0.563992 1.309
thorax -1.06889 -0.216348 4.37697
lowerneck 4.06654 -1.11371 -0.618031
upperneck 0.493366 -1.65118 -5.58172
head -0.57537 -0.811758 -1.59809
rclavicle 1.30701e-014 -3.57812e-015
rhumerus -41.4899 16.1603 -76.9039
rradius 54.0831
rwrist 8.27013
rhand -4.96742 -48.724
rfingers 7.12502
rthumb 20.8247 -77.6264
lclavicle 1.30701e-014 -3.57812e-015
lhumerus -53.1168 -14.4625 70.4557
lradius 74.194
lwrist -18.1312
lhand -24.3742 -22.9406
lfingers 7.12502
lthumb 2.11592 7.02865
rfemur -34.1666 13.0174 9.13104
rtibia 32.0687
rfoot -15.5927 -8.09625
rtoes -0.266164
lfemur -10.1553 -5.80953 -23.2755
ltibia 24.9007
lfoot -17.6513 18.4244
ltoes 3.28852
372
root 30.1315 15.9272 -1.84473 -523.913 -67.3125 533.389
lowerback -1.48859 -0.379931 -5.16121
upperback -2.02696 -0.491316 1.34626
thorax -1.19987 -0.177255 4.28434
lowerneck 3.93772 -0.712832 -0.0946422
upperneck 0.862659 -1.08956 -6.33078
head -0.435629 -0.54031 -1.94103
rclavicle -2.23136e-014 1.15295e-014
rhumerus -41.4859 15.9687 -76.3529
rradius 53.0856
rwrist 8.97088
rhand -4.61519 -48.1332
rfingers 7.12502
rthumb 21.1631 -76.9981
lclavicle -2.23136e-014 1.15295e-014
lhumerus -53.3592 -14.6845 70.432
lradius 75.185
lwrist -16.5799
lhand -24.2101 -21.7535
lfingers 7.12502
lthumb 2.27446 8.21408
rfemur -34.0789 13.017 9.23571
rtibia 32.4241
rfoot -15.3048 -8.59078
rtoes 0.662542
lfemur -10.2636 -5.73792 -23.2716
ltibia 25.0031
lfoot -17.1605 18.8025
ltoes 3.01023
373
root 30.1762 15.9315 -1.82221 -524.267 -67.0571 533.659
lowerback -1.62487 -0.309149 -4.79312
upperback -1.98659 -0.392132 1.27169
thorax -1.09405 -0.13671 3.99838
lowerneck 3.69692 -0.497673 0.199403
upperneck 1.06898 -0.778247 -6.62503
head -0.324122 -0.39234 -2.09408
rclavicle -2.54941e-014 -6.36111e-015
rhumerus -41.2153 15.671 -75.888
rradius 52.0251
rwrist 9.56471
rhand -4.41361 -47.7176
rfingers 7.12502
rthumb 21.3567 -76.5606
lclavicle -2.54941e-014 -6.36111e-015
lhumerus -53.1696 -15.1225 70.283
lradius 75.5171
lwrist -16.7248
lhand -25.1677 -21.7244
lfingers 7.12502
lthumb 1.3496 8.25109
rfemur -33.9415 12.9825 9.3186
rtibia 32.8756
rfoot -15.0255 -9.14091
rtoes 0.317212
lfemur -10.3819 -5.80126 -23.2303
ltibia 25.0852
lfoot -16.7573 18.9798
ltoes 3.30244
